<svg width="16" height="16" viewBox="0 0 16 16" fill="none" xmlns="http://www.w3.org/2000/svg">
<g clip-path="url(#clip0)">
<path d="M3.54594 9.66905L2.989 11.7482L0.953406 11.7912C0.345063 10.6629 0 9.37192 0 8.00005C0 6.67345 0.322625 5.42245 0.8945 4.32092H0.894938L2.70719 4.65317L3.50106 6.45455C3.33491 6.93895 3.24434 7.45895 3.24434 8.00005C3.24441 8.5873 3.35078 9.14995 3.54594 9.66905Z" fill="#FBBB00"/>
<path d="M15.8604 6.50562C15.9522 6.98955 16.0001 7.48933 16.0001 8.00012C16.0001 8.57287 15.9399 9.13155 15.8252 9.67046C15.4358 11.5043 14.4182 13.1056 13.0085 14.2388L13.0081 14.2384L10.7255 14.1219L10.4024 12.1052C11.3378 11.5566 12.0688 10.6981 12.4538 9.67046H8.17603V6.50562H12.5162H15.8604Z" fill="#518EF8"/>
<path d="M13.0081 14.2382L13.0086 14.2386C11.6376 15.3406 9.89602 15.9999 8.00021 15.9999C4.95361 15.9999 2.30483 14.2971 0.953613 11.7911L3.54614 9.66895C4.22174 11.472 5.96108 12.7555 8.00021 12.7555C8.87668 12.7555 9.6978 12.5186 10.4024 12.105L13.0081 14.2382Z" fill="#28B446"/>
<path d="M13.1064 1.84175L10.5148 3.9635C9.78553 3.50769 8.92353 3.24438 8.00003 3.24438C5.91475 3.24438 4.14288 4.58678 3.50113 6.4545L0.894969 4.32088H0.894531C2.22597 1.75384 4.90816 0 8.00003 0C9.94112 0 11.7209 0.691438 13.1064 1.84175Z" fill="#F14336"/>
</g>
<defs>
<clipPath id="clip0">
<rect width="16" height="16" fill="white"/>
</clipPath>
</defs>
</svg>
