<svg width="20" height="6" viewBox="0 0 20 6" fill="none" xmlns="http://www.w3.org/2000/svg">
<path d="M14.6666 3.00008C14.6666 4.28341 15.7166 5.33341 17 5.33341C18.2833 5.33341 19.3333 4.28341 19.3333 3.00008C19.3333 1.71675 18.2833 0.666748 17 0.666748C15.7166 0.666748 14.6666 1.71675 14.6666 3.00008ZM12.3333 3.00008C12.3333 1.71675 11.2833 0.666748 9.99998 0.666748C8.71665 0.666748 7.66665 1.71675 7.66665 3.00008C7.66665 4.28341 8.71665 5.33341 9.99998 5.33341C11.2833 5.33341 12.3333 4.28341 12.3333 3.00008ZM5.33331 3.00008C5.33331 1.71675 4.28331 0.666747 2.99998 0.666747C1.71665 0.666747 0.666647 1.71675 0.666647 3.00008C0.666647 4.28341 1.71665 5.33341 2.99998 5.33341C4.28331 5.33341 5.33331 4.28341 5.33331 3.00008Z" fill="black"/>
</svg>
