<svg width="18" height="17" viewBox="0 0 18 17" fill="none" xmlns="http://www.w3.org/2000/svg">
<path d="M10.6667 4.00008V2.33341H7.33332V4.00008H10.6667ZM2.33332 5.66675V14.8334H15.6667V5.66675H2.33332ZM15.6667 4.00008C16.5917 4.00008 17.3333 4.74175 17.3333 5.66675V14.8334C17.3333 15.7584 16.5917 16.5001 15.6667 16.5001H2.33332C1.40832 16.5001 0.666656 15.7584 0.666656 14.8334L0.67499 5.66675C0.67499 4.74175 1.40832 4.00008 2.33332 4.00008H5.66666V2.33341C5.66666 1.40841 6.40832 0.666748 7.33332 0.666748H10.6667C11.5917 0.666748 12.3333 1.40841 12.3333 2.33341V4.00008H15.6667Z" fill="black"/>
</svg>
